# xmcd
#
# Track frame offsets:
#	150
#	9017
#	19955
#	35444
#	45589
#	62533
#	78165
#	88524
#	111070
#	128419
#	144902
#	157196
#	168842
#	185051
#	204911
#	216594
#	227367
#	262240
#	282497
#	296931
#	311722
#
# Disc length: 4574 seconds
#
# Revision: 0
# Processed by: cddbd v1.5.2PL0 Copyright (c) Steve Scherf et al.
# Submitted via: EZCDAudioConverter 2.1.7.1
#
DISCID=2511dc15
DTITLE=Sun Ra - Singles 3/3
DYEAR=1900
DGENRE=
TTITLE0=Sun Ra and His Outer Space Arkestra - The Bridge
TTITLE1=Sun Ra and His Outer Space Arkestra - Rocket # 9
TTITLE2=Sun Ra and His Astro-Solar-Infinity Arkestra - Blues On Planet Mars
TTITLE3=Sun Ra and His Astro-Solar-Infinity Arkestra - Saturn Moon
TTITLE4=Sun Ra and His Astro-Intergalactic Infinity Arkestra - Journey To Saturn
TTITLE5=Sun Ra and His Astro-Intergalactic Infinity Arkestra - Enlightenment
TTITLE6=Sun Ra and His Astro-Intergalactic Infinity Arkestra - I'm Gonna Unmask 
TTITLE6=The Batman
TTITLE7=Sun Ra and His Astro-Intergalactic Infinity Arkestra - The Perfect Man
TTITLE8=Sun Ra and His Arkestra - Love In Outer Space
TTITLE9=Sun Ra and His Arkestra - Mayan Temple
TTITLE10=Sun Ra - Sky Blues
TTITLE11=Sun Ra - Disco 2021
TTITLE12=Sun Ra - Rough House Blues
TTITLE13=Sun Ra - Cosmo-Extensions
TTITLE14=Sun Ra and His Outer Space Arkestra - Quest
TTITLE15=Sun Ra and His Outer Space Arkestra - Outer Space Plateau
TTITLE16=Sun Ra Arkestra - Nuclear War
TTITLE17=Sun Ra Arkestra - Sometimes I'm Happy
TTITLE18=Sun Ra Arkestra - On Jupiter/Cosmo Drama (Prophetika 1)
TTITLE19=Sun Ra Arkestra - Cosmo Drama (Prophetika 2)
TTITLE20=Sun Ra - I Am The Instrument
EXTD=
EXTT0=
EXTT1=
EXTT2=
EXTT3=
EXTT4=
EXTT5=
EXTT6=
EXTT7=
EXTT8=
EXTT9=
EXTT10=
EXTT11=
EXTT12=
EXTT13=
EXTT14=
EXTT15=
EXTT16=
EXTT17=
EXTT18=
EXTT19=
EXTT20=
PLAYORDER=
